<mxfile host="app.diagrams.net" modified="2020-08-21T11:01:21.040Z" agent="5.0 (X11)" etag="V7oXotPMtgrBx7-wzG4M" version="13.6.2" type="github">
  <diagram id="C5RBs43oDa-KdzZeNtuy" name="Page-1">
    <mxGraphModel dx="675" dy="369" grid="1" gridSize="11" guides="1" tooltips="1" connect="1" arrows="1" fold="1" page="1" pageScale="1" pageWidth="827" pageHeight="1169" math="0" shadow="0">
      <root>
        <mxCell id="WIyWlLk6GJQsqaUBKTNV-0" />
        <mxCell id="WIyWlLk6GJQsqaUBKTNV-1" parent="WIyWlLk6GJQsqaUBKTNV-0" />
        <mxCell id="UurVGGhAO9OJB1mra-fe-9" value="&lt;p style=&quot;margin: 0px ; margin-top: 4px ; text-align: center&quot;&gt;&lt;font style=&quot;font-size: 6px&quot;&gt;&lt;b&gt;ExpenseReportController&lt;/b&gt;&lt;br&gt;&lt;/font&gt;&lt;/p&gt;&lt;hr size=&quot;1&quot;&gt;&lt;p style=&quot;margin: 0px ; margin-left: 4px&quot;&gt;&lt;font style=&quot;font-size: 6px&quot;&gt;- expenseReportService: ExpenseReportService &lt;/font&gt;&lt;/p&gt;&lt;hr size=&quot;1&quot;&gt;&lt;p style=&quot;margin: 0px ; margin-left: 4px&quot;&gt;&lt;font style=&quot;font-size: 6px&quot;&gt;+ selectUserExpense(Long userId,Long statusCode ): List&amp;lt;ExpenseReportModel&amp;gt;&lt;/font&gt;&lt;/p&gt;&lt;p style=&quot;margin: 0px ; margin-left: 4px&quot;&gt;&lt;font style=&quot;font-size: 6px&quot;&gt;+ getManagerOrHrExpenseReport(Long defaultRole,Long workflowTaskStatusCode,&lt;/font&gt;&lt;/p&gt;&lt;p style=&quot;margin: 0px ; margin-left: 4px&quot;&gt;&lt;font style=&quot;font-size: 6px&quot;&gt;String filterSubmitter,String filterTitle,String filterBeginDate,String filterEndDate): List&amp;lt;ExpenseReportModel&amp;gt;&lt;/font&gt;&lt;br&gt;&lt;/p&gt;" style="verticalAlign=top;align=left;overflow=fill;fontSize=12;fontFamily=Helvetica;html=1;" vertex="1" parent="WIyWlLk6GJQsqaUBKTNV-1">
          <mxGeometry x="259" y="210" width="368" height="153" as="geometry" />
        </mxCell>
        <mxCell id="UurVGGhAO9OJB1mra-fe-12" value="BaseController" style="html=1;" vertex="1" parent="WIyWlLk6GJQsqaUBKTNV-1">
          <mxGeometry x="336" y="80" width="156" height="40" as="geometry" />
        </mxCell>
        <mxCell id="UurVGGhAO9OJB1mra-fe-13" value="&lt;p style=&quot;margin: 4px 0px 0px ; text-align: center ; font-size: 11px&quot;&gt;&lt;font style=&quot;font-size: 6px&quot;&gt;&lt;b&gt;ExpenseReportPrintController&lt;/b&gt;&lt;br&gt;&lt;/font&gt;&lt;/p&gt;&lt;hr style=&quot;font-size: 11px&quot; size=&quot;1&quot;&gt;&lt;p style=&quot;margin: 0px 0px 0px 4px ; font-size: 11px&quot;&gt;&lt;font style=&quot;font-size: 6px&quot;&gt;- expenseReportPrintService : ExpenseReportPrintService&lt;br&gt;&lt;/font&gt;&lt;/p&gt;&lt;hr style=&quot;font-size: 11px&quot; size=&quot;1&quot;&gt;&lt;p style=&quot;margin: 0px 0px 0px 4px ; font-size: 11px&quot;&gt;&lt;font style=&quot;font-size: 6px&quot;&gt;+ getExpensePrintInfo() : List&amp;lt;ExpenseReportPrintModel&amp;gt;&lt;br&gt;&lt;/font&gt;&lt;/p&gt;&lt;p style=&quot;margin: 0px 0px 0px 4px ; font-size: 11px&quot;&gt;&lt;font style=&quot;font-size: 6px&quot;&gt;+getExpensePrintByPrintId() : ExpenseReportPrintModel&lt;br&gt;+ uploadExpenseReport() : boolean&lt;br&gt;&lt;/font&gt;&lt;/p&gt;" style="verticalAlign=top;align=left;overflow=fill;fontSize=12;fontFamily=Helvetica;html=1;" vertex="1" parent="WIyWlLk6GJQsqaUBKTNV-1">
          <mxGeometry x="30" y="210" width="168" height="109" as="geometry" />
        </mxCell>
        <mxCell id="UurVGGhAO9OJB1mra-fe-17" value="extend" style="html=1;verticalAlign=bottom;endArrow=block;exitX=0.5;exitY=0;exitDx=0;exitDy=0;entryX=0.41;entryY=1;entryDx=0;entryDy=0;entryPerimeter=0;" edge="1" parent="WIyWlLk6GJQsqaUBKTNV-1" source="UurVGGhAO9OJB1mra-fe-13" target="UurVGGhAO9OJB1mra-fe-12">
          <mxGeometry width="80" relative="1" as="geometry">
            <mxPoint x="300" y="490" as="sourcePoint" />
            <mxPoint x="380" y="490" as="targetPoint" />
          </mxGeometry>
        </mxCell>
      </root>
    </mxGraphModel>
  </diagram>
</mxfile>
